OpenSim_Sub03_CSStiffKnee_LCS.mot
version=1
nRows=68
nColumns=11
inDegrees=no
endheader
time	Bot_Shank	2nd_Bot_Shank	2nd_Top_Shank	Top_Shank	Bot_Thigh	Med_Thigh	Top_Thigh	BNOx	BNOy	BNOZ
0	1292.73634177	1264.43035291	1140.34017387	1007.01812254	1153.11939532	957.10961119	969.66441077	212.76707241	-75.48033330	-167.32495415
0.01000000	1292.94446009	1264.84809641	1140.09884222	1007.00544199	1152.35094647	957.05234391	969.90294572	212.75515917	-75.49408739	-167.31413684
0.02000000	1293.01331669	1265.10326124	1139.92198566	1006.99632351	1151.68589545	956.93074777	970.07609386	212.74543328	-75.50503136	-167.30663020
0.03000000	1292.92247852	1265.17148031	1139.82677649	1006.99401081	1151.16864814	956.74799838	970.16726835	212.73803550	-75.51254544	-167.30212065
0.04000000	1292.70112768	1265.07900487	1139.80419180	1006.99694799	1150.78798382	956.51977369	970.18585059	212.73282017	-75.51704485	-167.30051368
0.05000000	1292.38060344	1264.85428698	1139.84406979	1007.00337047	1150.53026323	956.26229525	970.14235100	212.72962918	-75.51898981	-167.30172432
0.06000000	1291.99224508	1264.52577872	1139.93624865	1007.01151368	1150.38184712	955.99178460	970.04728000	212.72830441	-75.51884054	-167.30566758
0.07000000	1291.56739190	1264.12193213	1140.07056658	1007.01961303	1150.32909622	955.72446328	969.91114803	212.72868774	-75.51705725	-167.31225847
0.08000000	1291.13738318	1263.67119930	1140.23686175	1007.02590396	1150.35837129	955.47655283	969.74446552	212.73062107	-75.51410017	-167.32141201
0.09000000	1290.73355818	1263.20203227	1140.42497238	1007.02862189	1150.45603306	955.26427478	969.55774289	212.73394627	-75.51042949	-167.33304322
0.10000000	1290.38725621	1262.74288311	1140.62473664	1007.02600223	1150.60844228	955.10385069	969.36149058	212.73850523	-75.50650545	-167.34706711
0.11000000	1290.12981653	1262.32220388	1140.82599274	1007.01628041	1150.80195968	955.01150209	969.16621901	212.74413985	-75.50278825	-167.36339871
0.12000000	1289.99256887	1261.96844090	1141.01858064	1006.99769307	1151.02294749	955.00344485	968.98243644	212.75069198	-75.49973802	-167.38195294
0.13000000	1289.99414921	1261.70240631	1141.19471023	1006.97009750	1151.25971914	955.08836660	968.81777544	212.75798121	-75.49767777	-167.40252820
0.14000000	1290.11547585	1261.52222838	1141.35363326	1006.93816648	1151.50638596	955.25258582	968.67132378	212.76576090	-75.49652324	-167.42457662
0.15000000	1290.33049367	1261.42184148	1141.49590340	1006.90746311	1151.75813116	955.47828530	968.54058945	212.77377217	-75.49611483	-167.44748629
0.16000000	1290.61314755	1261.39517999	1141.62207432	1006.88355048	1152.01013799	955.74764781	968.42308044	212.78175612	-75.49629294	-167.47064535
0.17000000	1290.93738236	1261.43617828	1141.73269970	1006.87199168	1152.25758967	956.04285613	968.31630474	212.78945389	-75.49689800	-167.49344188
0.18000000	1291.27714300	1261.53877072	1141.82833321	1006.87834982	1152.49566945	956.34609303	968.21777032	212.79660659	-75.49777041	-167.51526401
0.19000000	1291.60637432	1261.69689169	1141.90952853	1006.90818799	1152.71956055	956.63954131	968.12498519	212.80295533	-75.49875058	-167.53549985
0.20000000	1291.89902123	1261.90447555	1141.97683933	1006.96706928	1152.92444621	956.90538373	968.03545732	212.80824123	-75.49967892	-167.55353750
0.21000000	1292.13046476	1262.15512662	1142.03081952	1007.05997872	1153.10578281	957.12651419	967.94698629	212.81222116	-75.50040294	-167.56879953
0.22000000	1292.29757552	1262.43751059	1142.07202667	1007.18325179	1153.26311377	957.29646699	967.86173462	212.81488789	-75.50087617	-167.58122422
0.23000000	1292.41376678	1262.73649139	1142.10102116	1007.32656551	1153.39912870	957.41696743	967.78522343	212.81641574	-75.50113381	-167.59114679
0.24000000	1292.49287735	1263.03683516	1142.11836344	1007.47942562	1153.51659816	957.48995153	967.72306025	212.81698368	-75.50121314	-167.59891270
0.25000000	1292.54874604	1263.32330801	1142.12461396	1007.63133786	1153.61829271	957.51735529	967.68085261	212.81677072	-75.50115145	-167.60486740
0.26000000	1292.59521166	1263.58067610	1142.12033315	1007.77180797	1153.70698290	957.50111472	967.66420803	212.81595585	-75.50098603	-167.60935635
0.27000000	1292.64611302	1263.79370554	1142.10608148	1007.89034169	1153.78543929	957.44316582	967.67873403	212.81471806	-75.50075417	-167.61272499
0.28000000	1292.71528893	1263.94716247	1142.08241939	1007.97644478	1153.85643243	957.34544460	967.73003814	212.81323634	-75.50049314	-167.61531878
0.29000000	1292.81657820	1264.02581303	1142.04990733	1008.01962296	1153.92273288	957.20988707	967.82372788	212.81168968	-75.50024025	-167.61748316
0.30000000	1292.96381964	1264.01442335	1142.00910574	1008.00938199	1153.98711119	957.03842923	967.96541078	212.81025708	-75.50003276	-167.61956359
0.31000000	1293.16669825	1263.90248513	1141.96153867	1007.93728045	1154.05109097	956.83468159	968.15771071	212.80910643	-75.49990317	-167.62182915
0.32000000	1293.40419978	1263.71441510	1141.91585166	1007.81004883	1154.10698021	956.61463016	968.38120057	212.80832356	-75.49984837	-167.62398450
0.33000000	1293.64155050	1263.49028346	1141.88388217	1007.64121768	1154.14295638	956.39980769	968.60656991	212.80795753	-75.49984932	-167.62548133
0.34000000	1293.84391176	1263.27023426	1141.87748268	1007.44434964	1154.14717750	956.21177312	968.80446167	212.80805723	-75.49988690	-167.62577013
0.35000000	1293.97644491	1263.09441152	1141.90850571	1007.23300732	1154.10780156	956.07208537	968.94551880	212.80867154	-75.49994199	-167.62430139
0.36000000	1294.00431132	1263.00295930	1141.98880375	1007.02075337	1154.01298656	956.00230337	969.00038425	212.80984934	-75.49999548	-167.62052562
0.37000000	1293.90065191	1263.02695291	1142.12595454	1006.81967597	1153.85337062	956.01899585	968.94744771	212.81157505	-75.50003108	-167.61406074
0.38000000	1293.68176736	1263.14841697	1142.30441461	1006.63388829	1153.63300612	956.11174072	968.80699947	212.81348425	-75.50004786	-167.60543031
0.39000000	1293.37848360	1263.33286829	1142.50085914	1006.46481958	1153.36045999	956.26103227	968.61343124	212.81509518	-75.50005005	-167.59546269
0.40000000	1293.02163749	1263.54581122	1142.69195745	1006.31389704	1153.04430253	956.44735791	968.40114538	212.81592595	-75.50004189	-167.58498645
0.41000000	1292.64206588	1263.75275013	1142.85437884	1006.18254788	1152.69310408	956.65120506	968.20454424	212.81549469	-75.50002761	-167.57483017
0.42000000	1292.27060564	1263.91918940	1142.96479264	1006.07219933	1152.31543494	956.85306115	968.05803018	212.81331954	-75.50001144	-167.56582243
0.43000000	1291.93804454	1264.01070547	1142.99992889	1005.98427592	1151.91987894	957.03343429	967.99592357	212.80892024	-75.49999762	-167.55879021
0.44000000	1291.66476412	1264.00815746	1142.94938933	1005.91963789	1151.51787926	957.17722012	968.03516781	212.80215815	-75.49998891	-167.55422044
0.45000000	1291.44792821	1263.92650212	1142.83149430	1005.87788641	1151.12725882	957.27910335	968.15393592	212.79365685	-75.49998479	-167.55184134
0.46000000	1291.28155912	1263.78530985	1142.66844990	1005.85845227	1150.76670374	957.33509326	968.32515502	212.78414308	-75.49998430	-167.55127849
0.47000000	1291.15967917	1263.60415103	1142.48246225	1005.86076630	1150.45490013	957.34119910	968.52175226	212.77434354	-75.49998649	-167.55215746
0.48000000	1291.07631070	1263.40259606	1142.29573747	1005.88425928	1150.21053410	957.29343013	968.71665476	212.76498494	-75.49999041	-167.55410384
0.49000000	1291.02547600	1263.20021532	1142.13048168	1005.92836203	1150.05229179	957.18779562	968.88278966	212.75679402	-75.49999510	-167.55674319
0.50000000	1291.00119741	1263.01657920	1142.00890100	1005.99250535	1149.99885929	957.02030482	968.99308409	212.75049748	-75.49999960	-167.55970110
0.51000000	1290.99832076	1262.86861597	1141.94938444	1006.07566104	1150.06340808	956.78992316	969.02567271	212.74667058	-75.50000308	-167.56262987
0.52000000	1291.01614606	1262.75896329	1141.94967510	1006.17431817	1150.22928198	956.51160534	968.98685661	212.74506933	-75.50000545	-167.56532635
0.53000000	1291.05547236	1262.68544933	1142.00056782	1006.28413031	1150.46978648	956.20568719	968.89241612	212.74517401	-75.50000683	-167.56763605
0.54000000	1291.11709985	1262.64589868	1142.09285219	1006.40075035	1150.75821950	955.89250857	968.75813876	212.74646470	-75.50000736	-167.56940452
0.55000000	1291.20182872	1262.63813590	1142.21731779	1006.51983122	1151.06787896	955.59240935	968.59981201	212.74842150	-75.50000716	-167.57047730
0.56000000	1291.31045913	1262.65998556	1142.36475422	1006.63702583	1151.37206277	955.32572942	968.43322338	212.75052449	-75.50000638	-167.57069994
0.57000000	1291.44379129	1262.70927223	1142.52595107	1006.74798710	1151.64406887	955.11280865	968.27416037	212.75225375	-75.50000514	-167.56991799
0.58000000	1291.60262536	1262.78382048	1142.69169792	1006.84836794	1151.85719516	954.97398690	968.13841047	212.75308937	-75.50000357	-167.56797698
0.59000000	1291.78776154	1262.88145488	1142.85278437	1006.93382127	1151.98473956	954.92960406	968.04176118	212.75251142	-75.50000182	-167.56472247
0.60000000	1292	1263	1143	1007	1152	955	968	212.75000000	-75.50000000	-167.56000000
0.61000000	1292.23854309	1263.13640122	1143.12681709	1007.04390484	1151.88632222	955.19552940	968.02390595	212.74521770	-75.49999826	-167.55375361
0.62000000	1292.49620180	1263.28408716	1143.23743862	1007.06792766	1151.66724328	955.48660622	968.10422414	212.73855721	-75.49999672	-167.54632133
0.63000000	1292.76418927	1263.43560728	1143.33875026	1007.07580812	1151.37634807	955.83365919	968.22669121	212.73059369	-75.49999552	-167.53813969
0.64000000	1293.03371865	1263.58351100	1143.43763767	1007.07128590	1151.04722147	956.19711709	968.37704378	212.72190235	-75.49999478	-167.52964521
0.65000000	1293.29600308	1263.72034776	1143.54098652	1007.05810065	1150.71344838	956.53740866	968.54101850	212.71305838	-75.49999463	-167.52127442
0.66000000	1293.54225571	1263.83866701	1143.65568247	1007.03999204	1150.40861366	956.81496266	968.70435199	212.70463695	-75.49999521	-167.51346384
0.67000000	1293.76368969	1263.93101819	1143.78861119	1007.02069974	1150.16630223	956.99020785	968.85278089	212.69721327	-75.49999664	-167.50665000
